<svg width="24" height="25" viewBox="0 0 24 25" fill="none" xmlns="http://www.w3.org/2000/svg">
<path d="M21.25 5.65V9.35C21.25 10.401 21.0352 10.9416 20.7384 11.2384C20.4416 11.5352 19.901 11.75 18.85 11.75H16.15C15.099 11.75 14.5584 11.5352 14.2616 11.2384C13.9648 10.9416 13.75 10.401 13.75 9.35V5.65C13.75 4.59897 13.9648 4.05836 14.2616 3.76158C14.5584 3.4648 15.099 3.25 16.15 3.25H18.85C19.901 3.25 20.4416 3.4648 20.7384 3.76158C21.0352 4.05836 21.25 4.59897 21.25 5.65Z" stroke="#9DA4AE" stroke-width="1.5" stroke-linecap="round" stroke-linejoin="round"/>
<path d="M10.25 15.65V19.35C10.25 20.401 10.0352 20.9416 9.73842 21.2384C9.44164 21.5352 8.90103 21.75 7.85 21.75H5.15C4.09897 21.75 3.55836 21.5352 3.26158 21.2384C2.9648 20.9416 2.75 20.401 2.75 19.35V15.65C2.75 14.599 2.9648 14.0584 3.26158 13.7616C3.55836 13.4648 4.09897 13.25 5.15 13.25H7.85C8.90103 13.25 9.44164 13.4648 9.73842 13.7616C10.0352 14.0584 10.25 14.599 10.25 15.65Z" stroke="#9DA4AE" stroke-width="1.5" stroke-linecap="round" stroke-linejoin="round"/>
<path d="M22 15.5C22 19.37 18.87 22.5 15 22.5L16.05 20.75" stroke="#9DA4AE" stroke-width="1.5" stroke-linecap="round" stroke-linejoin="round"/>
<path d="M2 9.5C2 5.63 5.13 2.5 9 2.5L7.95 4.25" stroke="#9DA4AE" stroke-width="1.5" stroke-linecap="round" stroke-linejoin="round"/>
</svg>
