<svg width="24" height="25" viewBox="0 0 24 25" fill="none" xmlns="http://www.w3.org/2000/svg">
<path d="M6.09261 14.7469L6.09262 14.7469L6.0943 14.7441C6.29459 14.4081 6.45929 13.9776 6.57401 13.5644C6.68866 13.1513 6.77009 12.6954 6.77009 12.3V9.41C6.77009 6.51422 9.1243 4.16 12.0201 4.16C14.9059 4.16 17.2701 6.52422 17.2701 9.41V12.3C17.2701 12.6951 17.3515 13.1507 17.4643 13.5621C17.5774 13.9744 17.7384 14.4018 17.9304 14.7348L17.9303 14.7349L17.9376 14.7469L19.087 16.6559C19.0871 16.6561 19.0872 16.6562 19.0873 16.6564C19.501 17.3468 19.1654 18.2397 18.4147 18.4879L18.4124 18.4887C14.2571 19.877 9.77452 19.8771 5.61918 18.4891C5.16242 18.3342 4.89959 18.0489 4.78967 17.7521C4.67998 17.4558 4.69376 17.0706 4.94261 16.6569C4.94265 16.6568 4.94269 16.6567 4.94273 16.6567L6.09261 14.7469Z" stroke="#9DA4AE" stroke-width="1.5" stroke-miterlimit="10" stroke-linecap="round"/>
<mask id="path-2-inside-1_1034_19883" fill="white">
<path d="M13.8699 3.7C13.5599 3.61 13.2399 3.54 12.9099 3.5C11.9499 3.38 11.0299 3.45 10.1699 3.7C10.4599 2.96 11.1799 2.44 12.0199 2.44C12.8599 2.44 13.5799 2.96 13.8699 3.7Z"/>
</mask>
<path d="M13.8699 3.7L13.4517 5.14052C14.0006 5.29988 14.5923 5.13345 14.9777 4.71135C15.3631 4.28925 15.4751 3.68484 15.2665 3.15269L13.8699 3.7ZM12.9099 3.5L12.7239 4.98843L12.7294 4.9891L12.9099 3.5ZM10.1699 3.7L8.77334 3.15269C8.56476 3.68493 8.67683 4.28944 9.06232 4.71154C9.44782 5.13365 10.0397 5.29995 10.5886 5.14038L10.1699 3.7ZM14.2881 2.25948C13.913 2.15056 13.5129 2.06211 13.0904 2.0109L12.7294 4.9891C12.9669 5.01789 13.2069 5.06945 13.4517 5.14052L14.2881 2.25948ZM13.096 2.01159C11.9448 1.86769 10.8183 1.94942 9.75121 2.25963L10.5886 5.14038C11.2415 4.95058 11.955 4.89232 12.7239 4.98842L13.096 2.01159ZM11.5665 4.24731C11.6376 4.06587 11.8142 3.94 12.0199 3.94V0.940002C10.5456 0.940002 9.28223 1.85413 8.77334 3.15269L11.5665 4.24731ZM12.0199 3.94C12.2256 3.94 12.4022 4.06587 12.4733 4.24731L15.2665 3.15269C14.7576 1.85413 13.4942 0.940002 12.0199 0.940002V3.94Z" fill="#9DA4AE" mask="url(#path-2-inside-1_1034_19883)"/>
<path d="M15.02 19.56C15.02 21.21 13.67 22.56 12.02 22.56C11.2 22.56 10.44 22.22 9.90002 21.68C9.36002 21.14 9.02002 20.38 9.02002 19.56" stroke="#9DA4AE" stroke-width="1.5" stroke-miterlimit="10"/>
</svg>
