<svg width="24" height="25" viewBox="0 0 24 25" fill="none" xmlns="http://www.w3.org/2000/svg">
<path d="M12.1771 10.6188C12.0589 10.6102 11.9335 10.6106 11.8149 10.6189C9.85913 10.532 8.31006 8.92302 8.31006 6.94C8.31006 4.90311 9.95537 3.25 12.0001 3.25C14.0353 3.25 15.6892 4.90339 15.6901 6.93847C15.681 8.92308 14.1309 10.531 12.1771 10.6188Z" stroke="#9DA4AE" stroke-width="1.5" stroke-linecap="round" stroke-linejoin="round"/>
<path d="M7.57704 20.3067L7.5754 20.3056C6.52198 19.6047 6.09497 18.7544 6.09497 17.9987C6.09497 17.2429 6.52216 16.39 7.5758 15.6842C8.80724 14.8682 10.4715 14.4375 12.1725 14.4375C13.8743 14.4375 15.533 14.8686 16.7534 15.6837L16.7545 15.6844C17.808 16.3853 18.235 17.2356 18.235 17.9913C18.235 18.7474 17.8074 19.6007 16.7528 20.3068C15.527 21.1269 13.8658 21.56 12.165 21.56C10.4641 21.56 8.80283 21.1268 7.57704 20.3067Z" stroke="#9DA4AE" stroke-width="1.5" stroke-linecap="round" stroke-linejoin="round"/>
</svg>
