<svg width="20" height="20" viewBox="0 0 20 20" fill="none" xmlns="http://www.w3.org/2000/svg">
<path d="M17.0832 9.41668V5.86669C17.0832 2.50836 16.2998 1.66669 13.1498 1.66669H6.84984C3.69984 1.66669 2.9165 2.50836 2.9165 5.86669V15.25C2.9165 17.4667 4.13318 17.9917 5.60818 16.4084L5.6165 16.4C6.29983 15.675 7.34149 15.7333 7.93316 16.525L8.77484 17.65" stroke="#384250" stroke-width="1.5" stroke-linecap="round" stroke-linejoin="round"/>
<path d="M15.1667 17.8333C16.6394 17.8333 17.8333 16.6394 17.8333 15.1667C17.8333 13.6939 16.6394 12.5 15.1667 12.5C13.6939 12.5 12.5 13.6939 12.5 15.1667C12.5 16.6394 13.6939 17.8333 15.1667 17.8333Z" stroke="#384250" stroke-width="1.5" stroke-linecap="round" stroke-linejoin="round"/>
<path d="M18.3333 18.3333L17.5 17.5" stroke="#384250" stroke-width="1.5" stroke-linecap="round" stroke-linejoin="round"/>
<path d="M6.6665 5.83331H13.3332" stroke="#384250" stroke-width="1.5" stroke-linecap="round" stroke-linejoin="round"/>
<path d="M7.5 9.16669H12.5" stroke="#384250" stroke-width="1.5" stroke-linecap="round" stroke-linejoin="round"/>
</svg>
